<svg width="18" height="16" viewBox="0 0 18 16" fill="none" xmlns="http://www.w3.org/2000/svg">
<path fill-rule="evenodd" clip-rule="evenodd" d="M9 1.95801C8.11632 1.95801 7.40889 2.23131 5.72153 2.90625L3.38114 3.8424C2.53912 4.17922 1.95565 4.4135 1.57746 4.61177C1.5405 4.63114 1.50719 4.64933 1.47723 4.66634C1.50719 4.68335 1.5405 4.70154 1.57746 4.72091C1.95565 4.91919 2.53912 5.15347 3.38114 5.49028L5.72153 6.42643C7.40889 7.10138 8.11632 7.37467 9 7.37467C9.88367 7.37467 10.5911 7.10138 12.2785 6.42643L14.6189 5.49028C15.4609 5.15347 16.0444 4.91919 16.4225 4.72091C16.4595 4.70154 16.4928 4.68335 16.5228 4.66634C16.4928 4.64933 16.4595 4.63114 16.4225 4.61177C16.0444 4.4135 15.4609 4.17922 14.6189 3.8424L12.2785 2.90625C10.5911 2.23131 9.88367 1.95801 9 1.95801ZM5.35368 1.70709C6.91767 1.08131 7.85064 0.708008 9 0.708008C10.1494 0.708008 11.0823 1.08131 12.6463 1.70709C12.6782 1.71984 12.7103 1.73269 12.7427 1.74565L15.1209 2.69692C15.9164 3.0151 16.5607 3.27281 17.0029 3.50468C17.2268 3.62203 17.4436 3.75507 17.6108 3.91545C17.7826 4.08024 17.9583 4.33015 17.9583 4.66634C17.9583 5.00253 17.7826 5.25244 17.6108 5.41723C17.4436 5.57761 17.2268 5.71065 17.0029 5.828C16.7099 5.98163 16.3282 6.14661 15.8725 6.33301C16.3282 6.5194 16.7099 6.68438 17.0029 6.83802C17.2268 6.95537 17.4436 7.08841 17.6108 7.24879C17.7826 7.41358 17.9583 7.66349 17.9583 7.99967C17.9583 8.33586 17.7826 8.58577 17.6108 8.75056C17.4436 8.91094 17.2268 9.04398 17.0029 9.16133C16.7099 9.31497 16.3282 9.47995 15.8725 9.66634C16.3282 9.85274 16.7099 10.0177 17.0029 10.1714C17.2268 10.2887 17.4436 10.4217 17.6108 10.5821C17.7826 10.7469 17.9583 10.9968 17.9583 11.333C17.9583 11.6692 17.7826 11.9191 17.6108 12.0839C17.4436 12.2443 17.2268 12.3773 17.0029 12.4947C16.5607 12.7265 15.9164 12.9842 15.1209 13.3024L12.7427 14.2537C12.7103 14.2667 12.6782 14.2795 12.6463 14.2923C11.0823 14.918 10.1494 15.2913 9 15.2913C7.85064 15.2913 6.91768 14.918 5.35369 14.2923C5.32182 14.2795 5.28969 14.2667 5.25729 14.2537L2.87908 13.3024C2.08361 12.9842 1.43933 12.7265 0.997054 12.4947C0.77322 12.3773 0.556378 12.2443 0.389172 12.0839C0.217372 11.9191 0.041666 11.6692 0.041666 11.333C0.041666 10.9968 0.217372 10.7469 0.389171 10.5821C0.556378 10.4217 0.77322 10.2887 0.997054 10.1714C1.2901 10.0177 1.67184 9.85274 2.12749 9.66634C1.67184 9.47994 1.2901 9.31497 0.997054 9.16133C0.77322 9.04398 0.556378 8.91094 0.389172 8.75056C0.217372 8.58577 0.041666 8.33586 0.041666 7.99967C0.041666 7.66349 0.217372 7.41358 0.389172 7.24879C0.556378 7.08841 0.77322 6.95537 0.997054 6.83802C1.2901 6.68438 1.67184 6.5194 2.12749 6.33301C1.67184 6.14661 1.2901 5.98163 0.997054 5.828C0.77322 5.71065 0.556378 5.57761 0.389172 5.41723C0.217372 5.25244 0.041666 5.00253 0.041666 4.66634C0.041666 4.33015 0.217372 4.08024 0.389172 3.91545C0.556378 3.75507 0.77322 3.62203 0.997054 3.50468C1.43934 3.27281 2.08364 3.0151 2.87913 2.69692L5.25729 1.74565C5.28969 1.73269 5.32182 1.71984 5.35368 1.70709ZM3.80511 7.00615L3.38114 7.17574C2.53912 7.51255 1.95565 7.74683 1.57746 7.9451C1.5405 7.96448 1.50719 7.98266 1.47723 7.99967C1.50719 8.01668 1.5405 8.03487 1.57746 8.05425C1.95565 8.25252 2.53912 8.4868 3.38114 8.82361L5.72153 9.75977C7.40889 10.4347 8.11632 10.708 9 10.708C9.88367 10.708 10.5911 10.4347 12.2785 9.75977L14.6189 8.82361C15.4609 8.4868 16.0444 8.25252 16.4225 8.05425C16.4595 8.03487 16.4928 8.01668 16.5228 7.99967C16.4928 7.98266 16.4595 7.96448 16.4225 7.9451C16.0444 7.74683 15.4609 7.51255 14.6189 7.17574L14.1949 7.00615L12.7427 7.58703C12.7103 7.59999 12.6782 7.61284 12.6463 7.6256C11.0823 8.25138 10.1494 8.62467 9 8.62467C7.85064 8.62467 6.91768 8.25138 5.35369 7.62559C5.32182 7.61284 5.28969 7.59999 5.25729 7.58703L3.80511 7.00615ZM3.80511 10.3395L3.38114 10.5091C2.53912 10.8459 1.95565 11.0802 1.57746 11.2784C1.5405 11.2978 1.50719 11.316 1.47723 11.333C1.50719 11.35 1.5405 11.3682 1.57746 11.3876C1.95565 11.5859 2.53912 11.8201 3.38114 12.1569L5.72153 13.0931C7.40889 13.768 8.11632 14.0413 9 14.0413C9.88367 14.0413 10.5911 13.768 12.2785 13.0931L14.6189 12.1569C15.4609 11.8201 16.0444 11.5859 16.4225 11.3876C16.4595 11.3682 16.4928 11.35 16.5228 11.333C16.4928 11.316 16.4595 11.2978 16.4225 11.2784C16.0444 11.0802 15.4609 10.8459 14.6189 10.5091L14.1949 10.3395L12.7427 10.9204C12.7103 10.9333 12.6782 10.9462 12.6463 10.9589C11.0823 11.5847 10.1494 11.958 9 11.958C7.85064 11.958 6.91768 11.5847 5.35369 10.9589C5.32182 10.9462 5.28969 10.9333 5.25729 10.9204L3.80511 10.3395Z" fill="#2C2D3A"/>
</svg>
