<svg width="42" height="42" viewBox="0 0 42 42" fill="none" xmlns="http://www.w3.org/2000/svg">
<rect width="42" height="42" rx="21" fill="url(#paint0_linear_101_5140)"/>
<path fill-rule="evenodd" clip-rule="evenodd" d="M18.5926 30.75H23.4074C26.7885 30.75 28.4791 30.75 29.6935 29.9533C30.2192 29.6084 30.6706 29.1652 31.0219 28.6491C31.8334 27.4567 31.8334 25.7969 31.8334 22.4773C31.8334 19.1576 31.8334 17.4978 31.0219 16.3055C30.6706 15.7893 30.2192 15.3461 29.6935 15.0012C28.9132 14.4893 27.9362 14.3063 26.4405 14.2409C25.7268 14.2409 25.1122 13.7099 24.9722 13.0227C24.7623 11.992 23.8405 11.25 22.7698 11.25H19.2302C18.1596 11.25 17.2378 11.992 17.0278 13.0227C16.8878 13.7099 16.2733 14.2409 15.5595 14.2409C14.0638 14.3063 13.0869 14.4893 12.3065 15.0012C11.7808 15.3461 11.3294 15.7893 10.9781 16.3055C10.1667 17.4978 10.1667 19.1576 10.1667 22.4773C10.1667 25.7969 10.1667 27.4567 10.9781 28.6491C11.3294 29.1652 11.7808 29.6084 12.3065 29.9533C13.5209 30.75 15.2115 30.75 18.5926 30.75ZM21 18.0455C18.5071 18.0455 16.4861 20.0296 16.4861 22.4773C16.4861 24.9249 18.5071 26.9091 21 26.9091C23.493 26.9091 25.5139 24.9249 25.5139 22.4773C25.5139 20.0296 23.493 18.0455 21 18.0455ZM21 19.8182C19.5042 19.8182 18.2917 21.0087 18.2917 22.4773C18.2917 23.9458 19.5042 25.1364 21 25.1364C22.4958 25.1364 23.7084 23.9458 23.7084 22.4773C23.7084 21.0087 22.4958 19.8182 21 19.8182ZM26.1158 18.9318C26.1158 18.4423 26.5199 18.0455 27.0185 18.0455H28.2222C28.7208 18.0455 29.125 18.4423 29.125 18.9318C29.125 19.4213 28.7208 19.8182 28.2222 19.8182H27.0185C26.5199 19.8182 26.1158 19.4213 26.1158 18.9318Z" fill="white"/>
<defs>
<linearGradient id="paint0_linear_101_5140" x1="0" y1="0" x2="40.7604" y2="29.9865" gradientUnits="userSpaceOnUse">
<stop stop-color="#40C4FF"/>
<stop offset="1" stop-color="#03A9F4"/>
</linearGradient>
</defs>
</svg>
