<svg width="18" height="18" viewBox="0 0 18 18" fill="none" xmlns="http://www.w3.org/2000/svg">
<path fill-rule="evenodd" clip-rule="evenodd" d="M9.00005 0.0419922C5.43321 0.0419922 2.54172 2.93349 2.54172 6.50033V7.08708C2.54172 7.66785 2.36981 8.23562 2.04766 8.71885L1.09049 10.1546C-0.0204229 11.821 0.827667 14.086 2.75983 14.6129C3.3895 14.7847 4.0245 14.9299 4.66317 15.0487L4.66475 15.053C5.30558 16.7629 7.01834 17.9587 9 17.9587C10.9817 17.9587 12.6944 16.7629 13.3352 15.053L13.3368 15.0487C13.9755 14.9299 14.6106 14.7847 15.2403 14.6129C17.1724 14.086 18.0205 11.821 16.9096 10.1546L15.9524 8.71885C15.6303 8.23562 15.4584 7.66785 15.4584 7.08708V6.50033C15.4584 2.93349 12.5669 0.0419922 9.00005 0.0419922ZM11.8137 15.2811C9.9446 15.5045 8.05539 15.5044 6.18626 15.2811C6.77872 16.1324 7.8092 16.7087 9 16.7087C10.1908 16.7087 11.2213 16.1324 11.8137 15.2811ZM3.79172 6.50033C3.79172 3.62384 6.12357 1.29199 9.00005 1.29199C11.8765 1.29199 14.2084 3.62384 14.2084 6.50033V7.08708C14.2084 7.91463 14.4533 8.72366 14.9124 9.41222L15.8696 10.848C16.5072 11.8044 16.0204 13.1045 14.9114 13.407C11.0412 14.4625 6.95893 14.4625 3.08872 13.407C1.9797 13.1045 1.49291 11.8044 2.13055 10.848L3.08772 9.41222C3.54676 8.72366 3.79172 7.91463 3.79172 7.08708V6.50033Z" fill="#2C2D3A"/>
</svg>
