<svg width="42" height="42" viewBox="0 0 42 42" fill="none" xmlns="http://www.w3.org/2000/svg">
<rect width="42" height="42" rx="21" fill="url(#paint0_linear_106_6729)"/>
<path fill-rule="evenodd" clip-rule="evenodd" d="M23.1667 31.8337H18.8334C14.7478 31.8337 12.7051 31.8337 11.4359 30.5645C10.1667 29.2952 10.1667 27.2525 10.1667 23.167V18.8337C10.1667 14.7482 10.1667 12.7054 11.4359 11.4362C12.7051 10.167 14.7586 10.167 18.8656 10.167C19.5221 10.167 20.0482 10.167 20.4909 10.185C20.4763 10.2716 20.4687 10.36 20.4684 10.4493L20.4583 13.5199C20.4583 14.7084 20.4582 15.7588 20.572 16.6054C20.6954 17.5231 20.9787 18.4407 21.7276 19.1896C22.4764 19.9384 23.394 20.2217 24.3117 20.3451C25.1584 20.459 26.2087 20.4589 27.3973 20.4588L27.5 20.4588H31.7872C31.8334 21.0376 31.8334 21.7479 31.8334 22.6935V23.167C31.8334 27.2525 31.8334 29.2952 30.5641 30.5645C29.2949 31.8337 27.2522 31.8337 23.1667 31.8337ZM13.6875 23.7087C13.6875 23.2599 14.0513 22.8962 14.5 22.8962H23.1667C23.6154 22.8962 23.9792 23.2599 23.9792 23.7087C23.9792 24.1574 23.6154 24.5212 23.1667 24.5212H14.5C14.0513 24.5212 13.6875 24.1574 13.6875 23.7087ZM13.6875 27.5003C13.6875 27.0516 14.0513 26.6878 14.5 26.6878H20.4584C20.9071 26.6878 21.2709 27.0516 21.2709 27.5003C21.2709 27.9491 20.9071 28.3128 20.4584 28.3128H14.5C14.0513 28.3128 13.6875 27.9491 13.6875 27.5003Z" fill="white"/>
<path d="M28.9644 16.2517L24.6757 12.3919C23.4539 11.2922 22.8429 10.7424 22.0933 10.4548L22.0834 13.4171C22.0834 15.9705 22.0834 17.2473 22.8766 18.0405C23.6699 18.8338 24.9466 18.8338 27.5 18.8338H31.3785C30.9857 18.0709 30.2824 17.4379 28.9644 16.2517Z" fill="white"/>
<defs>
<linearGradient id="paint0_linear_106_6729" x1="0" y1="0" x2="40.7604" y2="29.9865" gradientUnits="userSpaceOnUse">
<stop stop-color="#40C4FF"/>
<stop offset="1" stop-color="#03A9F4"/>
</linearGradient>
</defs>
</svg>
