<svg width="42" height="42" viewBox="0 0 42 42" fill="none" xmlns="http://www.w3.org/2000/svg">
<rect width="42" height="42" rx="21" fill="url(#paint0_linear_101_5155)"/>
<path d="M27.5 16.667C27.5 17.8636 26.53 18.8337 25.3334 18.8337C24.1367 18.8337 23.1667 17.8636 23.1667 16.667C23.1667 15.4704 24.1367 14.5003 25.3334 14.5003C26.53 14.5003 27.5 15.4704 27.5 16.667Z" fill="white"/>
<path fill-rule="evenodd" clip-rule="evenodd" d="M20.9379 9.35449H21.0622C23.5629 9.35448 25.5227 9.35447 27.0518 9.56005C28.617 9.77048 29.852 10.2096 30.8214 11.179C31.7907 12.1484 32.2299 13.3834 32.4403 14.9485C32.6459 16.4776 32.6459 18.4374 32.6459 20.9382V21.0338C32.6459 23.1017 32.6459 24.7945 32.5336 26.1727C32.4207 27.5578 32.1894 28.7152 31.6718 29.6764C31.4435 30.1004 31.1629 30.4801 30.8214 30.8217C29.852 31.7911 28.617 32.2302 27.0518 32.4406C25.5227 32.6462 23.5629 32.6462 21.0622 32.6462H20.9379C18.4371 32.6462 16.4773 32.6462 14.9482 32.4406C13.3831 32.2302 12.148 31.7911 11.1787 30.8217C10.3193 29.9623 9.87549 28.8927 9.63948 27.5658C9.40765 26.2624 9.36524 24.6407 9.35643 22.6269C9.35419 22.1147 9.35419 21.573 9.35419 21.0014V20.9382C9.35417 18.4374 9.35416 16.4776 9.55975 14.9485C9.77017 13.3834 10.2093 12.1484 11.1787 11.179C12.148 10.2096 13.3831 9.77048 14.9482 9.56005C16.4773 9.35447 18.4371 9.35448 20.9379 9.35449ZM15.1647 11.1706C13.7798 11.3568 12.9448 11.7109 12.3277 12.328C11.7106 12.9451 11.3565 13.7801 11.1703 15.165C10.9809 16.5733 10.9792 18.4239 10.9792 21.0003C10.9792 21.315 10.9792 21.6194 10.9796 21.9141L12.0641 20.9651C13.0513 20.1013 14.5392 20.1509 15.4668 21.0784L20.114 25.7256C20.8585 26.4701 22.0304 26.5716 22.8918 25.9662L23.2149 25.7392C24.4545 24.868 26.1316 24.969 27.2577 25.9825L30.324 28.7422C30.6327 28.094 30.816 27.2423 30.9139 26.0408C31.0202 24.7359 31.0209 23.1084 31.0209 21.0003C31.0209 18.4239 31.0191 16.5733 30.8298 15.165C30.6436 13.7801 30.2894 12.9451 29.6723 12.328C29.0552 11.7109 28.2202 11.3568 26.8353 11.1706C25.427 10.9812 23.5764 10.9795 21 10.9795C18.4236 10.9795 16.573 10.9812 15.1647 11.1706Z" fill="white"/>
<defs>
<linearGradient id="paint0_linear_101_5155" x1="0" y1="0" x2="40.7604" y2="29.9865" gradientUnits="userSpaceOnUse">
<stop stop-color="#40C4FF"/>
<stop offset="1" stop-color="#03A9F4"/>
</linearGradient>
</defs>
</svg>
