<svg width="25" height="24" viewBox="0 0 25 24" fill="none" xmlns="http://www.w3.org/2000/svg">
<g clip-path="url(#clip0_2003_3305)">
<path fill-rule="evenodd" clip-rule="evenodd" d="M12.875 1.25C10.2516 1.25 8.125 3.37665 8.125 6C8.125 8.62335 10.2516 10.75 12.875 10.75C15.4984 10.75 17.625 8.62335 17.625 6C17.625 3.37665 15.4984 1.25 12.875 1.25ZM9.625 6C9.625 4.20507 11.0801 2.75 12.875 2.75C14.6699 2.75 16.125 4.20507 16.125 6C16.125 7.79493 14.6699 9.25 12.875 9.25C11.0801 9.25 9.625 7.79493 9.625 6Z" fill="#9A9BB1"/>
<path d="M18.875 3.25C18.4608 3.25 18.125 3.58579 18.125 4C18.125 4.41421 18.4608 4.75 18.875 4.75C20.2515 4.75 21.125 5.65573 21.125 6.5C21.125 7.34427 20.2515 8.25 18.875 8.25C18.4608 8.25 18.125 8.58579 18.125 9C18.125 9.41421 18.4608 9.75 18.875 9.75C20.8122 9.75 22.625 8.41715 22.625 6.5C22.625 4.58285 20.8122 3.25 18.875 3.25Z" fill="#9A9BB1"/>
<path d="M7.625 4C7.625 3.58579 7.28921 3.25 6.875 3.25C4.93778 3.25 3.125 4.58285 3.125 6.5C3.125 8.41715 4.93778 9.75 6.875 9.75C7.28921 9.75 7.625 9.41421 7.625 9C7.625 8.58579 7.28921 8.25 6.875 8.25C5.49851 8.25 4.625 7.34427 4.625 6.5C4.625 5.65573 5.49851 4.75 6.875 4.75C7.28921 4.75 7.625 4.41421 7.625 4Z" fill="#9A9BB1"/>
<path fill-rule="evenodd" clip-rule="evenodd" d="M12.875 12.25C11.0907 12.25 9.44145 12.7308 8.21633 13.5475C6.99646 14.3608 6.125 15.5666 6.125 17C6.125 18.4334 6.99646 19.6392 8.21633 20.4525C9.44145 21.2692 11.0907 21.75 12.875 21.75C14.6593 21.75 16.3085 21.2692 17.5337 20.4525C18.7535 19.6392 19.625 18.4334 19.625 17C19.625 15.5666 18.7535 14.3608 17.5337 13.5475C16.3085 12.7308 14.6593 12.25 12.875 12.25ZM7.625 17C7.625 16.2242 8.09669 15.4301 9.04838 14.7956C9.99484 14.1646 11.3456 13.75 12.875 13.75C14.4044 13.75 15.7552 14.1646 16.7016 14.7956C17.6533 15.4301 18.125 16.2242 18.125 17C18.125 17.7758 17.6533 18.5699 16.7016 19.2044C15.7552 19.8354 14.4044 20.25 12.875 20.25C11.3456 20.25 9.99484 19.8354 9.04838 19.2044C8.09669 18.5699 7.625 17.7758 7.625 17Z" fill="#9A9BB1"/>
<path d="M20.1424 13.8393C20.2311 13.4347 20.6311 13.1787 21.0357 13.2674C21.9975 13.4783 22.8643 13.8593 23.5078 14.3859C24.1508 14.912 24.625 15.6352 24.625 16.5C24.625 17.3648 24.1508 18.088 23.5078 18.6141C22.8643 19.1407 21.9975 19.5217 21.0357 19.7326C20.6311 19.8213 20.2311 19.5653 20.1424 19.1607C20.0537 18.7561 20.3097 18.3561 20.7143 18.2674C21.5067 18.0936 22.1399 17.7952 22.5579 17.4532C22.9764 17.1108 23.125 16.7763 23.125 16.5C23.125 16.2237 22.9764 15.8892 22.5579 15.5468C22.1399 15.2048 21.5067 14.9064 20.7143 14.7326C20.3097 14.6439 20.0537 14.2439 20.1424 13.8393Z" fill="#9A9BB1"/>
<path d="M4.71435 13.2674C5.11895 13.1787 5.51887 13.4347 5.60759 13.8393C5.69632 14.2439 5.44025 14.6439 5.03565 14.7326C4.24329 14.9064 3.61005 15.2048 3.19212 15.5468C2.77363 15.8892 2.625 16.2237 2.625 16.5C2.625 16.7763 2.77363 17.1108 3.19212 17.4532C3.61005 17.7952 4.24329 18.0936 5.03565 18.2674C5.44025 18.3561 5.69632 18.7561 5.60759 19.1607C5.51887 19.5653 5.11895 19.8213 4.71435 19.7326C3.75246 19.5217 2.8857 19.1407 2.24219 18.6141C1.59925 18.088 1.125 17.3648 1.125 16.5C1.125 15.6352 1.59925 14.912 2.24219 14.3859C2.8857 13.8593 3.75246 13.4783 4.71435 13.2674Z" fill="#9A9BB1"/>
</g>
<defs>
<clipPath id="clip0_2003_3305">
<rect width="24" height="24" fill="white" transform="translate(0.875)"/>
</clipPath>
</defs>
</svg>
