<svg width="20" height="18" viewBox="0 0 20 18" fill="none" xmlns="http://www.w3.org/2000/svg">
<path fill-rule="evenodd" clip-rule="evenodd" d="M10 0.0419922C7.81387 0.0419922 6.04167 1.8142 6.04167 4.00033C6.04167 6.18645 7.81387 7.95866 10 7.95866C12.1861 7.95866 13.9583 6.18645 13.9583 4.00033C13.9583 1.8142 12.1861 0.0419922 10 0.0419922ZM7.29167 4.00033C7.29167 2.50455 8.50423 1.29199 10 1.29199C11.4958 1.29199 12.7083 2.50455 12.7083 4.00033C12.7083 5.4961 11.4958 6.70866 10 6.70866C8.50423 6.70866 7.29167 5.4961 7.29167 4.00033Z" fill="#2C2D3A"/>
<path d="M15 1.70866C14.6548 1.70866 14.375 1.98848 14.375 2.33366C14.375 2.67884 14.6548 2.95866 15 2.95866C16.1471 2.95866 16.875 3.71343 16.875 4.41699C16.875 5.12055 16.1471 5.87533 15 5.87533C14.6548 5.87533 14.375 6.15515 14.375 6.50033C14.375 6.8455 14.6548 7.12533 15 7.12533C16.6144 7.12533 18.125 6.01462 18.125 4.41699C18.125 2.81936 16.6144 1.70866 15 1.70866Z" fill="#2C2D3A"/>
<path d="M5.625 2.33366C5.625 1.98848 5.34518 1.70866 5 1.70866C3.38565 1.70866 1.875 2.81936 1.875 4.41699C1.875 6.01462 3.38565 7.12533 5 7.12533C5.34518 7.12533 5.625 6.8455 5.625 6.50033C5.625 6.15515 5.34518 5.87533 5 5.87533C3.85293 5.87533 3.125 5.12055 3.125 4.41699C3.125 3.71343 3.85293 2.95866 5 2.95866C5.34518 2.95866 5.625 2.67884 5.625 2.33366Z" fill="#2C2D3A"/>
<path fill-rule="evenodd" clip-rule="evenodd" d="M10 9.20866C8.51311 9.20866 7.13871 9.60932 6.11778 10.2899C5.10122 10.9676 4.375 11.9725 4.375 13.167C4.375 14.3615 5.10122 15.3663 6.11778 16.044C7.13871 16.7247 8.51311 17.1253 10 17.1253C11.4869 17.1253 12.8613 16.7247 13.8822 16.044C14.8988 15.3663 15.625 14.3615 15.625 13.167C15.625 11.9725 14.8988 10.9676 13.8822 10.2899C12.8613 9.60932 11.4869 9.20866 10 9.20866ZM5.625 13.167C5.625 12.5205 6.01807 11.8587 6.81115 11.33C7.59987 10.8042 8.72547 10.4587 10 10.4587C11.2745 10.4587 12.4001 10.8042 13.1888 11.33C13.9819 11.8587 14.375 12.5205 14.375 13.167C14.375 13.8135 13.9819 14.4753 13.1888 15.004C12.4001 15.5298 11.2745 15.8753 10 15.8753C8.72547 15.8753 7.59987 15.5298 6.81115 15.004C6.01807 14.4753 5.625 13.8135 5.625 13.167Z" fill="#2C2D3A"/>
<path d="M16.0562 10.5331C16.1301 10.1959 16.4634 9.98256 16.8005 10.0565C17.6021 10.2323 18.3244 10.5498 18.8607 10.9886C19.3965 11.427 19.7917 12.0297 19.7917 12.7503C19.7917 13.471 19.3965 14.0736 18.8607 14.5121C18.3244 14.9509 17.6021 15.2684 16.8005 15.4442C16.4634 15.5181 16.1301 15.3047 16.0562 14.9675C15.9822 14.6304 16.1956 14.2971 16.5328 14.2232C17.1931 14.0784 17.7208 13.8296 18.0691 13.5447C18.4178 13.2593 18.5417 12.9806 18.5417 12.7503C18.5417 12.5201 18.4178 12.2414 18.0691 11.956C17.7208 11.671 17.1931 11.4223 16.5328 11.2775C16.1956 11.2035 15.9822 10.8703 16.0562 10.5331Z" fill="#2C2D3A"/>
<path d="M3.19946 10.0565C3.53662 9.98256 3.86989 10.1959 3.94383 10.5331C4.01777 10.8703 3.80438 11.2035 3.46721 11.2775C2.80691 11.4223 2.27921 11.671 1.93094 11.956C1.58219 12.2414 1.45833 12.5201 1.45833 12.7503C1.45833 12.9806 1.58219 13.2593 1.93094 13.5447C2.27921 13.8296 2.80691 14.0784 3.46721 14.2232C3.80438 14.2971 4.01777 14.6304 3.94383 14.9675C3.86989 15.3047 3.53662 15.5181 3.19946 15.4442C2.39789 15.2684 1.67559 14.9509 1.13933 14.5121C0.603541 14.0736 0.208334 13.471 0.208334 12.7503C0.208334 12.0297 0.603541 11.427 1.13933 10.9886C1.67559 10.5498 2.39789 10.2323 3.19946 10.0565Z" fill="#2C2D3A"/>
</svg>
