<svg width="18" height="18" viewBox="0 0 18 18" fill="none" xmlns="http://www.w3.org/2000/svg">
<path fill-rule="evenodd" clip-rule="evenodd" d="M9 1.29199C4.7428 1.29199 1.29167 4.74313 1.29167 9.00033C1.29167 13.2575 4.7428 16.7087 9 16.7087C13.2572 16.7087 16.7083 13.2575 16.7083 9.00033C16.7083 4.74313 13.2572 1.29199 9 1.29199ZM0.041666 9.00033C0.041666 4.05277 4.05245 0.0419922 9 0.0419922C13.9475 0.0419922 17.9583 4.05277 17.9583 9.00033C17.9583 13.9479 13.9475 17.9587 9 17.9587C4.05245 17.9587 0.041666 13.9479 0.041666 9.00033ZM9 5.45866C8.48223 5.45866 8.0625 5.87839 8.0625 6.39616C8.0625 6.74134 7.78268 7.02116 7.4375 7.02116C7.09232 7.02116 6.8125 6.74134 6.8125 6.39616C6.8125 5.18804 7.79188 4.20866 9 4.20866C10.2081 4.20866 11.1875 5.18804 11.1875 6.39616C11.1875 7.19894 10.7547 7.89997 10.1127 8.2798C9.94876 8.3768 9.81341 8.48272 9.72523 8.58663C9.63962 8.68752 9.625 8.75333 9.625 8.79199V9.83366C9.625 10.1788 9.34518 10.4587 9 10.4587C8.65482 10.4587 8.375 10.1788 8.375 9.83366V8.79199C8.375 8.37042 8.55956 8.02836 8.77216 7.77783C8.98219 7.53034 9.24408 7.34133 9.47622 7.20398C9.7537 7.03982 9.9375 6.73912 9.9375 6.39616C9.9375 5.87839 9.51777 5.45866 9 5.45866ZM9 13.167C9.46024 13.167 9.83333 12.7939 9.83333 12.3337C9.83333 11.8734 9.46024 11.5003 9 11.5003C8.53976 11.5003 8.16667 11.8734 8.16667 12.3337C8.16667 12.7939 8.53976 13.167 9 13.167Z" fill="#2C2D3A"/>
</svg>
