<svg width="18" height="16" viewBox="0 0 18 16" fill="none" xmlns="http://www.w3.org/2000/svg">
<path fill-rule="evenodd" clip-rule="evenodd" d="M9 4.87467C7.27411 4.87467 5.875 6.27378 5.875 7.99967C5.875 9.72556 7.27411 11.1247 9 11.1247C10.7259 11.1247 12.125 9.72556 12.125 7.99967C12.125 6.27378 10.7259 4.87467 9 4.87467ZM7.125 7.99967C7.125 6.96414 7.96447 6.12467 9 6.12467C10.0355 6.12467 10.875 6.96414 10.875 7.99967C10.875 9.03521 10.0355 9.87467 9 9.87467C7.96447 9.87467 7.125 9.03521 7.125 7.99967Z" fill="#2C2D3A"/>
<path fill-rule="evenodd" clip-rule="evenodd" d="M9 0.708008C5.23822 0.708008 2.70441 2.96151 1.23381 4.87206L1.20728 4.90651C0.874698 5.33845 0.568383 5.73628 0.360572 6.20667C0.138036 6.7104 0.041666 7.25942 0.041666 7.99967C0.041666 8.73993 0.138037 9.28895 0.360572 9.79268C0.568384 10.2631 0.8747 10.6609 1.20729 11.0928L1.23381 11.1273C2.70441 13.0378 5.23822 15.2913 9 15.2913C12.7618 15.2913 15.2956 13.0378 16.7662 11.1273L16.7927 11.0929C17.1253 10.6609 17.4316 10.2631 17.6394 9.79268C17.862 9.28895 17.9583 8.73993 17.9583 7.99967C17.9583 7.25942 17.862 6.7104 17.6394 6.20667C17.4316 5.73627 17.1253 5.33844 16.7927 4.90649L16.7662 4.87206C15.2956 2.96151 12.7618 0.708008 9 0.708008ZM2.22435 5.63451C3.5822 3.87044 5.79197 1.95801 9 1.95801C12.208 1.95801 14.4178 3.87044 15.7757 5.63451C16.1411 6.10933 16.3552 6.39305 16.496 6.7118C16.6276 7.00969 16.7083 7.37379 16.7083 7.99967C16.7083 8.62556 16.6276 8.98966 16.496 9.28755C16.3552 9.60629 16.1411 9.89002 15.7757 10.3648C14.4178 12.1289 12.208 14.0413 9 14.0413C5.79197 14.0413 3.5822 12.1289 2.22435 10.3648C1.85886 9.89002 1.64478 9.60629 1.50397 9.28755C1.37236 8.98966 1.29167 8.62556 1.29167 7.99967C1.29167 7.37379 1.37236 7.00969 1.50397 6.7118C1.64478 6.39306 1.85886 6.10933 2.22435 5.63451Z" fill="#2C2D3A"/>
</svg>
