<svg width="18" height="18" viewBox="0 0 18 18" fill="none" xmlns="http://www.w3.org/2000/svg">
<path fill-rule="evenodd" clip-rule="evenodd" d="M2.54167 4.00033C2.54167 1.8142 4.31387 0.0419922 6.5 0.0419922C8.68613 0.0419922 10.4583 1.8142 10.4583 4.00033C10.4583 6.18645 8.68613 7.95866 6.5 7.95866C4.31387 7.95866 2.54167 6.18645 2.54167 4.00033ZM6.5 1.29199C5.00423 1.29199 3.79167 2.50455 3.79167 4.00033C3.79167 5.4961 5.00423 6.70866 6.5 6.70866C7.99577 6.70866 9.20833 5.4961 9.20833 4.00033C9.20833 2.50455 7.99577 1.29199 6.5 1.29199Z" fill="#2C2D3A"/>
<path fill-rule="evenodd" clip-rule="evenodd" d="M2.06512 10.2673C3.23126 9.60095 4.80055 9.20866 6.5 9.20866C8.19944 9.20866 9.76873 9.60095 10.9349 10.2673C12.0833 10.9236 12.9583 11.9254 12.9583 13.167C12.9583 14.4085 12.0833 15.4104 10.9349 16.0667C9.76873 16.733 8.19944 17.1253 6.5 17.1253C4.80055 17.1253 3.23126 16.733 2.06512 16.0667C0.916663 15.4104 0.041666 14.4085 0.041666 13.167C0.041666 11.9254 0.916663 10.9236 2.06512 10.2673ZM2.6853 11.3526C1.7225 11.9028 1.29167 12.5676 1.29167 13.167C1.29167 13.7664 1.7225 14.4312 2.6853 14.9814C3.63041 15.5214 4.97778 15.8753 6.5 15.8753C8.02221 15.8753 9.36959 15.5214 10.3147 14.9814C11.2775 14.4312 11.7083 13.7664 11.7083 13.167C11.7083 12.5676 11.2775 11.9028 10.3147 11.3526C9.36959 10.8126 8.02221 10.4587 6.5 10.4587C4.97778 10.4587 3.63041 10.8126 2.6853 11.3526Z" fill="#2C2D3A"/>
<path fill-rule="evenodd" clip-rule="evenodd" d="M12.0752 5.20611C12.6758 4.94034 13.3732 4.99072 14 5.3994C14.6268 4.99072 15.3242 4.94034 15.9248 5.20611C16.6373 5.52144 17.125 6.24974 17.125 7.08343C17.125 7.87375 16.7798 8.46866 16.3662 8.91957C16.0434 9.27147 15.6441 9.56867 15.3287 9.80336C15.2611 9.85373 15.1971 9.90133 15.1388 9.94587L15.1371 9.94715C15.0132 10.0417 14.8529 10.164 14.6839 10.2596C14.514 10.3558 14.2786 10.4587 14 10.4587C13.7214 10.4587 13.486 10.3558 13.3161 10.2596C13.1471 10.164 12.9868 10.0417 12.8629 9.94716L12.8612 9.94587C12.8029 9.90133 12.7391 9.85384 12.6714 9.80346C12.3561 9.56878 11.9566 9.27147 11.6338 8.91957C11.2202 8.46866 10.875 7.87375 10.875 7.08343C10.875 6.24974 11.3627 5.52144 12.0752 5.20611ZM12.125 7.08343C12.125 6.74012 12.3249 6.46256 12.5811 6.34918C12.8029 6.25099 13.1561 6.24094 13.5568 6.64392C13.6741 6.76193 13.8336 6.82828 14 6.82828C14.1664 6.82828 14.3259 6.76193 14.4432 6.64392C14.8439 6.24094 15.1971 6.25099 15.4189 6.34918C15.6751 6.46256 15.875 6.74012 15.875 7.08343C15.875 7.47012 15.7178 7.77731 15.445 8.0746C15.21 8.3308 14.9297 8.54031 14.6198 8.77194C14.5418 8.83024 14.4619 8.89 14.3804 8.9522C14.245 9.05556 14.1511 9.12488 14.0684 9.17165C14.035 9.19055 14.0128 9.20021 14 9.20501C13.9872 9.20021 13.965 9.19055 13.9316 9.17165C13.8489 9.12488 13.755 9.05556 13.6196 8.9522C13.5381 8.89 13.4582 8.83029 13.3802 8.77199C13.0703 8.54036 12.79 8.3308 12.555 8.0746C12.2822 7.77731 12.125 7.47012 12.125 7.08343Z" fill="#2C2D3A"/>
</svg>
