<svg width="18" height="18" viewBox="0 0 18 18" fill="none" xmlns="http://www.w3.org/2000/svg">
<path d="M3.55806 9.44227C3.31398 9.19819 3.31398 8.80246 3.55806 8.55838L5.22473 6.89172C5.4688 6.64764 5.86453 6.64764 6.10861 6.89172C6.35269 7.1358 6.35269 7.53152 6.10861 7.7756L5.50888 8.37533L11.5 8.37533C11.8452 8.37533 12.125 8.65515 12.125 9.00033C12.125 9.3455 11.8452 9.62533 11.5 9.62533L5.50888 9.62533L6.10861 10.2251C6.35269 10.4691 6.35269 10.8649 6.10861 11.1089C5.86453 11.353 5.4688 11.353 5.22473 11.1089L3.55806 9.44227Z" fill="#F44336"/>
<path fill-rule="evenodd" clip-rule="evenodd" d="M10.6211 0.0419926H11.5459C12.6856 0.0419758 13.6042 0.0419622 14.3266 0.139096C15.0767 0.239943 15.7083 0.455687 16.2099 0.957285C16.7115 1.45888 16.9272 2.09044 17.0281 2.84053C17.1252 3.56301 17.1252 4.48161 17.1252 5.62127V12.3794C17.1252 13.519 17.1252 14.4376 17.0281 15.1601C16.9272 15.9102 16.7115 16.5418 16.2099 17.0434C15.7083 17.545 15.0767 17.7607 14.3266 17.8616C13.6042 17.9587 12.6856 17.9587 11.5459 17.9587H10.6211C9.48146 17.9587 8.56286 17.9587 7.84039 17.8616C7.0903 17.7607 6.45873 17.545 5.95714 17.0434C5.62469 16.7109 5.41723 16.3206 5.28587 15.8752C4.49307 15.8741 3.83255 15.8654 3.2974 15.7935C2.66078 15.7079 2.10883 15.5226 1.66825 15.0821C1.22767 14.6415 1.04244 14.0895 0.956848 13.4529C0.874963 12.8439 0.874979 12.0724 0.874999 11.1284V6.87225C0.874979 5.92823 0.874963 5.15678 0.956848 4.54773C1.04244 3.9111 1.22767 3.35916 1.66825 2.91858C2.10883 2.478 2.66078 2.29277 3.2974 2.20717C3.83255 2.13523 4.49307 2.12651 5.28587 2.12547C5.41723 1.68001 5.62469 1.28973 5.95714 0.957285C6.45873 0.455688 7.0903 0.239943 7.84039 0.139096C8.56286 0.0419622 9.48147 0.0419758 10.6211 0.0419926ZM5.0433 13.1705C5.04629 13.7076 5.05516 14.1914 5.0857 14.6246C4.3903 14.6219 3.87333 14.6097 3.46396 14.5546C2.96595 14.4877 2.72175 14.3678 2.55214 14.1982C2.38252 14.0286 2.26266 13.7844 2.1957 13.2864C2.12633 12.7704 2.125 12.0834 2.125 11.0837V6.91699C2.125 5.91723 2.12633 5.23028 2.1957 4.71429C2.26266 4.21627 2.38252 3.97208 2.55214 3.80246C2.72175 3.63285 2.96595 3.51298 3.46396 3.44603C3.87333 3.39099 4.3903 3.37878 5.0857 3.37609C5.05516 3.80927 5.04629 4.29307 5.0433 4.83018C5.04138 5.17535 5.31964 5.45673 5.66482 5.45865C6.00999 5.46057 6.29136 5.18231 6.29328 4.83714C6.29836 3.92589 6.32202 3.27999 6.41207 2.78978C6.49883 2.31744 6.63814 2.04405 6.84102 1.84117C7.07166 1.61053 7.39547 1.46016 8.00695 1.37795C8.63641 1.29332 9.47067 1.29199 10.6668 1.29199H11.5002C12.6964 1.29199 13.5306 1.29332 14.1601 1.37795C14.7716 1.46016 15.0954 1.61053 15.326 1.84117C15.5566 2.0718 15.707 2.39561 15.7892 3.00709C15.8739 3.63655 15.8752 4.47081 15.8752 5.66699V12.3337C15.8752 13.5298 15.8739 14.3641 15.7892 14.9936C15.707 15.605 15.5566 15.9289 15.326 16.1595C15.0954 16.3901 14.7716 16.5405 14.1601 16.6227C13.5306 16.7073 12.6964 16.7087 11.5002 16.7087H10.6668C9.47067 16.7087 8.63641 16.7073 8.00695 16.6227C7.39547 16.5405 7.07166 16.3901 6.84102 16.1595C6.63814 15.9566 6.49883 15.6832 6.41207 15.2109C6.32202 14.7207 6.29836 14.0748 6.29328 13.1635C6.29136 12.8183 6.00999 12.5401 5.66482 12.542C5.31964 12.5439 5.04138 12.8253 5.0433 13.1705Z" fill="#F44336"/>
</svg>
