<svg width="19" height="16" viewBox="0 0 19 16" fill="none" xmlns="http://www.w3.org/2000/svg">
<path fill-rule="evenodd" clip-rule="evenodd" d="M10.1169 2.09099C9.52165 2.38013 8.76742 2.87587 7.69258 3.58456L7.51014 3.70485C7.49625 3.71401 7.48255 3.72305 7.46902 3.73197C7.15219 3.94096 6.93276 4.0857 6.69231 4.19182C6.45534 4.2964 6.2063 4.37112 5.9509 4.41424C5.69174 4.45801 5.42887 4.45796 5.04931 4.45788C5.03311 4.45788 5.0167 4.45787 5.00007 4.45787C3.79701 4.45787 3.39093 4.47144 3.04567 4.63118C2.71204 4.78553 2.3567 5.11987 2.18233 5.4435C2.00044 5.78109 1.96704 6.12709 1.90283 7.18056C1.88521 7.4697 1.875 7.74685 1.875 7.99954C1.875 8.25222 1.88521 8.52938 1.90283 8.81852C1.96704 9.87199 2.00044 10.218 2.18233 10.5556C2.3567 10.8792 2.71204 11.2135 3.04567 11.3679C3.39093 11.5276 3.79701 11.5412 5.00007 11.5412C5.0167 11.5412 5.03311 11.5412 5.04931 11.5412C5.42887 11.5411 5.69174 11.5411 5.9509 11.5848C6.2063 11.628 6.45534 11.7027 6.69231 11.8073C6.93276 11.9134 7.15219 12.0581 7.46902 12.2671C7.48254 12.276 7.49624 12.2851 7.51013 12.2942L7.69258 12.4145C8.76742 13.1232 9.52165 13.6189 10.1169 13.9081C10.7104 14.1964 11.0072 14.208 11.2149 14.1371C11.3294 14.0981 11.4414 14.041 11.5404 13.9715C11.7209 13.8446 11.8855 13.5991 12.0013 12.9563C12.1175 12.3106 12.1603 11.4173 12.2196 10.1417C12.263 9.20871 12.2917 8.42602 12.2917 7.99954C12.2917 7.57306 12.263 6.79036 12.2196 5.85739C12.1603 4.58177 12.1175 3.68848 12.0013 3.04275C11.8855 2.39994 11.7209 2.15447 11.5404 2.0276C11.4414 1.95803 11.3294 1.90102 11.2149 1.86195C11.0072 1.79109 10.7104 1.80265 10.1169 2.09099ZM9.57067 0.966638C10.259 0.632248 10.9368 0.446262 11.6186 0.678934C11.8451 0.756252 12.0632 0.867242 12.2591 1.00489C12.8475 1.4184 13.0965 2.07174 13.2315 2.82128C13.3642 3.55824 13.4095 4.53487 13.466 5.75144L13.4683 5.79937C13.5114 6.72851 13.5417 7.53954 13.5417 7.99954C13.5417 8.45954 13.5114 9.27057 13.4683 10.1997L13.466 10.2476C13.4095 11.4642 13.3642 12.4408 13.2315 13.1778C13.0965 13.9273 12.8475 14.5807 12.2591 14.9942C12.0632 15.1318 11.8451 15.2428 11.6186 15.3201C10.9368 15.5528 10.259 15.3668 9.57067 15.0324C8.8927 14.7031 8.07011 14.1607 7.04439 13.4844L6.82206 13.3378C6.4488 13.0917 6.3204 13.0094 6.18761 12.9508C6.04543 12.8881 5.896 12.8433 5.74276 12.8174C5.59964 12.7932 5.44717 12.7912 5.00007 12.7912C4.95474 12.7912 4.91002 12.7912 4.86589 12.7913C3.85179 12.7918 3.14716 12.7922 2.5208 12.5024C1.9418 12.2345 1.38451 11.7101 1.0819 11.1485C0.754719 10.5413 0.716328 9.90623 0.66174 9.00328C0.659574 8.96747 0.657384 8.93123 0.655149 8.89456C0.636444 8.58768 0.625 8.28419 0.625 7.99954C0.625 7.71489 0.636444 7.4114 0.655149 7.10451C0.657384 7.06784 0.659574 7.03161 0.66174 6.9958C0.716328 6.09285 0.754719 5.45782 1.0819 4.85058C1.38451 4.28895 1.9418 3.76459 2.5208 3.49671C3.14716 3.20692 3.85179 3.20729 4.86589 3.20782C4.91002 3.20785 4.95474 3.20787 5.00007 3.20787C5.44717 3.20787 5.59964 3.20587 5.74276 3.1817C5.896 3.15582 6.04543 3.11099 6.18761 3.04824C6.3204 2.98964 6.4488 2.90738 6.82206 2.66127L7.0444 2.51468C8.07012 1.83836 8.89271 1.29598 9.57067 0.966638ZM16.2666 2.51958C16.5317 2.2986 16.9258 2.33443 17.1468 2.5996L16.6667 2.99971C17.1468 2.5996 17.1468 2.5996 17.1468 2.5996L17.1478 2.60075L17.1488 2.60204L17.1513 2.60504L17.1576 2.61277C17.1623 2.61868 17.1682 2.62613 17.1751 2.63512C17.189 2.6531 17.2072 2.67726 17.229 2.70773C17.2725 2.76868 17.3305 2.85484 17.3979 2.96722C17.5328 3.19206 17.7052 3.52137 17.875 3.96285C18.2152 4.84733 18.5417 6.17341 18.5417 7.99971C18.5417 9.82602 18.2152 11.1521 17.875 12.0366C17.7052 12.4781 17.5328 12.8074 17.3979 13.0322C17.3305 13.1446 17.2725 13.2308 17.229 13.2917C17.2072 13.3222 17.189 13.3463 17.1751 13.3643C17.171 13.3697 17.1672 13.3745 17.1638 13.3788C17.1616 13.3817 17.1595 13.3843 17.1576 13.3867L17.1513 13.3944L17.1488 13.3974L17.1478 13.3987C17.1478 13.3987 17.1468 13.3998 16.6667 12.9997L17.1468 13.3998C16.9258 13.665 16.5317 13.7008 16.2666 13.4799C16.0027 13.2599 15.9659 12.8686 16.1834 12.6034M16.1834 12.6034C16.1834 12.6034 16.1848 12.6015 16.1863 12.5997C16.1907 12.594 16.1994 12.5825 16.2118 12.5652C16.2366 12.5304 16.2763 12.472 16.326 12.3891C16.4255 12.2233 16.5656 11.9589 16.7083 11.5879C16.9931 10.8473 17.2917 9.67341 17.2917 7.99971C17.2917 6.32602 16.9931 5.1521 16.7083 4.41158C16.5656 4.04056 16.4255 3.77612 16.326 3.61034C16.2763 3.5274 16.2366 3.46903 16.2118 3.43428C16.1994 3.4169 16.1907 3.40542 16.1863 3.39971C16.1848 3.39787 16.1834 3.39599 16.1834 3.39599L16.1863 3.39971L16.185 3.39794L16.1834 3.39599C15.9659 3.13087 16.0027 2.73949 16.2666 2.51958M14.6965 4.95337C14.9982 4.78573 15.3787 4.89445 15.5463 5.19619L15.023 5.48693C15.5464 5.1962 15.5463 5.19619 15.5463 5.19619L15.547 5.19728L15.5476 5.19844L15.549 5.20098L15.5522 5.20691L15.5602 5.2222C15.5663 5.23393 15.5737 5.24873 15.5822 5.26665C15.5993 5.30251 15.6209 5.35084 15.6454 5.41213C15.6945 5.53476 15.7549 5.70888 15.8137 5.93823C15.9315 6.39735 16.0417 7.07462 16.0417 7.99971C16.0417 8.92481 15.9315 9.60208 15.8137 10.0612C15.7549 10.2906 15.6945 10.4647 15.6454 10.5873C15.6209 10.6486 15.5993 10.6969 15.5822 10.7328C15.5737 10.7507 15.5663 10.7655 15.5602 10.7772L15.5522 10.7925L15.549 10.7984L15.5476 10.801L15.547 10.8021C15.547 10.8021 15.5464 10.8032 15.023 10.5125L15.5463 10.8032C15.3787 11.105 14.9982 11.2137 14.6965 11.0461C14.3973 10.8799 14.2879 10.5044 14.4494 10.2039L14.4536 10.1954C14.4593 10.1834 14.4703 10.1594 14.4848 10.1231C14.5139 10.0504 14.5576 9.92763 14.6029 9.75073C14.6935 9.39735 14.7917 8.82462 14.7917 7.99971C14.7917 7.17481 14.6935 6.60208 14.6029 6.2487C14.5576 6.0718 14.5139 5.94904 14.4848 5.87637C14.4703 5.84 14.4593 5.81606 14.4536 5.80407L14.4494 5.79553C14.2879 5.49505 14.3973 5.11958 14.6965 4.95337Z" fill="#2C2D3A"/>
</svg>
