<svg width="42" height="42" viewBox="0 0 42 42" fill="none" xmlns="http://www.w3.org/2000/svg">
<rect width="42" height="42" rx="21" fill="url(#paint0_linear_106_6895)"/>
<path d="M18.5625 16.3962C18.5625 15.9474 18.1987 15.5837 17.75 15.5837H16.4673H14.8233C15.2215 12.5273 17.8351 10.167 21 10.167C24.1649 10.167 26.7785 12.5273 27.1766 15.5837H25.5327L22.625 15.5837C22.1762 15.5837 21.8125 15.9474 21.8125 16.3962C21.8125 16.8449 22.1762 17.2087 22.625 17.2087L25.6041 17.2087H27.2291V18.8337H25.6041H22.625C22.1762 18.8337 21.8125 19.1974 21.8125 19.6462C21.8125 20.0949 22.1762 20.4587 22.625 20.4587H25.5327H27.1766C26.7785 23.515 24.1649 25.8753 21 25.8753C17.8351 25.8753 15.2215 23.515 14.8233 20.4587H16.4673H17.75C18.1987 20.4587 18.5625 20.0949 18.5625 19.6462C18.5625 19.1974 18.1987 18.8337 17.75 18.8337H16.3958H14.7708V17.2087H16.3958H17.75C18.1987 17.2087 18.5625 16.8449 18.5625 16.3962Z" fill="white"/>
<path fill-rule="evenodd" clip-rule="evenodd" d="M12.3333 17.7503C12.782 17.7503 13.1458 18.1141 13.1458 18.5628V19.6462C13.1458 23.9839 16.6622 27.5003 21 27.5003C25.3377 27.5003 28.8541 23.9839 28.8541 19.6462V18.5628C28.8541 18.1141 29.2179 17.7503 29.6666 17.7503C30.1154 17.7503 30.4791 18.1141 30.4791 18.5628V19.6462C30.4791 24.6077 26.6673 28.6789 21.8125 29.091V31.5628C21.8125 32.0116 21.4487 32.3753 21 32.3753C20.5512 32.3753 20.1875 32.0116 20.1875 31.5628V29.091C15.3326 28.6789 11.5208 24.6077 11.5208 19.6462V18.5628C11.5208 18.1141 11.8846 17.7503 12.3333 17.7503Z" fill="white"/>
<defs>
<linearGradient id="paint0_linear_106_6895" x1="0" y1="0" x2="40.7604" y2="29.9865" gradientUnits="userSpaceOnUse">
<stop stop-color="#40C4FF"/>
<stop offset="1" stop-color="#03A9F4"/>
</linearGradient>
</defs>
</svg>
