<svg width="18" height="18" viewBox="0 0 18 18" fill="none" xmlns="http://www.w3.org/2000/svg">
<path fill-rule="evenodd" clip-rule="evenodd" d="M6.70833 6.50033C6.70833 5.23467 7.73435 4.20866 9 4.20866C10.2657 4.20866 11.2917 5.23467 11.2917 6.50033C11.2917 7.76598 10.2657 8.79199 9 8.79199C7.73435 8.79199 6.70833 7.76598 6.70833 6.50033ZM9 5.45866C8.4247 5.45866 7.95833 5.92503 7.95833 6.50033C7.95833 7.07562 8.4247 7.54199 9 7.54199C9.5753 7.54199 10.0417 7.07562 10.0417 6.50033C10.0417 5.92503 9.5753 5.45866 9 5.45866Z" fill="#2C2D3A"/>
<path fill-rule="evenodd" clip-rule="evenodd" d="M9 9.20866C8.00354 9.20866 7.07051 9.40928 6.36347 9.7628C5.69381 10.0976 5.04167 10.6758 5.04167 11.5003L5.04156 11.5524C5.04028 11.9777 5.03813 12.6938 5.71686 13.1851C6.03182 13.4131 6.44741 13.5585 6.96224 13.6511C7.48184 13.7446 8.14768 13.792 9 13.792C9.85232 13.792 10.5182 13.7446 11.0378 13.6511C11.5526 13.5585 11.9682 13.4131 12.2831 13.1851C12.9619 12.6938 12.9597 11.9777 12.9584 11.5524L12.9583 11.5003C12.9583 10.6758 12.3062 10.0976 11.6365 9.7628C10.9295 9.40928 9.99646 9.20866 9 9.20866ZM6.29167 11.5003C6.29167 11.4044 6.38571 11.1492 6.92249 10.8808C7.42188 10.6311 8.15551 10.4587 9 10.4587C9.84448 10.4587 10.5781 10.6311 11.0775 10.8808C11.6143 11.1492 11.7083 11.4044 11.7083 11.5003C11.7083 12.004 11.6763 12.0813 11.5502 12.1726C11.4485 12.2462 11.2391 12.3448 10.8164 12.4209C10.3985 12.4961 9.81434 12.542 9 12.542C8.18566 12.542 7.6015 12.4961 7.18359 12.4209C6.76092 12.3448 6.55151 12.2462 6.44981 12.1726C6.32374 12.0813 6.29167 12.004 6.29167 11.5003Z" fill="#2C2D3A"/>
<path fill-rule="evenodd" clip-rule="evenodd" d="M6.26949 0.709588C7.47277 0.297478 8.21873 0.0419922 9 0.0419922C9.78127 0.0419922 10.5272 0.297478 11.7305 0.70959L12.3367 0.917103C13.5711 1.33966 14.5238 1.66576 15.2058 1.94281C15.5493 2.08238 15.8447 2.21755 16.0825 2.35566C16.3114 2.48858 16.541 2.65436 16.697 2.87661C16.8512 3.09629 16.9309 3.36636 16.981 3.62634C17.0331 3.89662 17.0645 4.22085 17.0847 4.59313C17.125 5.33232 17.125 6.345 17.125 7.65851V8.99312C17.125 14.0773 13.285 16.5149 11.0014 17.5125L10.9788 17.5223C10.6956 17.6461 10.4295 17.7624 10.1237 17.8407C9.80078 17.9233 9.45772 17.9587 9 17.9587C8.54228 17.9587 8.19922 17.9233 7.87634 17.8406C7.57051 17.7624 7.30436 17.6461 7.02119 17.5223L6.99861 17.5125C4.71502 16.5149 0.875 14.0773 0.875 8.99312V7.65858C0.875 6.34514 0.875 5.3323 0.915249 4.59313C0.93552 4.22085 0.966927 3.89662 1.01901 3.62634C1.06911 3.36636 1.14884 3.09629 1.30303 2.87661C1.45902 2.65436 1.68862 2.48858 1.91748 2.35566C2.15531 2.21755 2.45065 2.08238 2.79419 1.94281C3.47617 1.66576 4.42885 1.33966 5.66329 0.917106L6.26949 0.709588ZM9 1.29199C8.45188 1.29199 7.91262 1.46836 6.56718 1.92891L6.08984 2.0923C4.82934 2.52377 3.91008 2.8387 3.26466 3.1009C2.9425 3.23177 2.70908 3.34145 2.54524 3.4366C2.46435 3.48358 2.40861 3.52234 2.37139 3.5526C2.33983 3.57825 2.3278 3.59278 2.32608 3.5949C2.32446 3.59751 2.31411 3.61483 2.29952 3.65577C2.28287 3.70253 2.26441 3.76957 2.24643 3.86287C2.21003 4.05174 2.18245 4.31117 2.1634 4.66109C2.12523 5.36208 2.125 6.3406 2.125 7.68087V8.99312C2.125 13.3057 5.34991 15.4282 7.49899 16.367C7.80856 16.5022 7.98732 16.5788 8.18633 16.6297C8.3764 16.6784 8.60833 16.7087 9 16.7087C9.39167 16.7087 9.6236 16.6784 9.81367 16.6297C10.0127 16.5788 10.1914 16.5022 10.501 16.367C12.6501 15.4282 15.875 13.3057 15.875 8.99312V7.68087C15.875 6.3406 15.8748 5.36208 15.8366 4.66109C15.8175 4.31117 15.79 4.05174 15.7536 3.86287C15.7356 3.76957 15.7171 3.70253 15.7005 3.65577C15.6859 3.6148 15.6755 3.59749 15.6739 3.59489C15.6722 3.59276 15.6601 3.57823 15.6286 3.5526C15.5914 3.52234 15.5356 3.48358 15.4548 3.4366C15.2909 3.34145 15.0575 3.23177 14.7353 3.1009C14.0899 2.8387 13.1707 2.52377 11.9102 2.0923L11.4328 1.92891C10.0874 1.46836 9.54812 1.29199 9 1.29199Z" fill="#2C2D3A"/>
</svg>
