<svg width="18" height="18" viewBox="0 0 18 18" fill="none" xmlns="http://www.w3.org/2000/svg">
<path fill-rule="evenodd" clip-rule="evenodd" d="M12.6616 0.684671L12.717 0.699522C13.6332 0.944997 14.3592 1.13953 14.9302 1.34581C15.5143 1.55681 15.9906 1.79819 16.383 2.16572C16.9545 2.70089 17.3543 3.39349 17.5321 4.15592C17.6542 4.67951 17.6251 5.21271 17.5157 5.82407C17.4089 6.42177 17.2143 7.1478 16.9688 8.06398L16.5226 9.72924C16.2771 10.6454 16.0826 11.3713 15.8763 11.9424C15.6653 12.5265 15.424 13.0028 15.0564 13.3952C14.5383 13.9484 13.8726 14.3409 13.1388 14.5266C12.9244 15.0181 12.6113 15.4631 12.2164 15.833C11.824 16.2006 11.3477 16.4419 10.7635 16.653C10.1925 16.8592 9.46652 17.0538 8.5504 17.2992L8.49503 17.3141C7.57885 17.5596 6.85282 17.7541 6.25512 17.861C5.64375 17.9703 5.11056 17.9994 4.58696 17.8773C3.82453 17.6996 3.13194 17.2997 2.59676 16.7283C2.22924 16.3359 1.98786 15.8596 1.77686 15.2755C1.57057 14.7044 1.37604 13.9784 1.13057 13.0623L0.684358 11.397C0.438873 10.4808 0.244336 9.75483 0.137461 9.15715C0.0281396 8.54579 -0.000984229 8.0126 0.121101 7.489C0.298875 6.72657 0.698745 6.03397 1.27014 5.4988C1.66255 5.13127 2.13887 4.8899 2.72299 4.67889C3.29403 4.47261 4.02004 4.27808 4.93618 4.0326L4.96388 4.02518C5.18427 3.96613 5.39279 3.91035 5.59022 3.85819C5.91656 2.69225 6.20374 1.86804 6.76343 1.27046C7.2986 0.699064 7.9912 0.299194 8.75363 0.121419C9.27723 -0.000665702 9.81042 0.0284582 10.4218 0.13778C11.0195 0.244654 11.7455 0.439189 12.6616 0.684671ZM5.21252 5.25266C4.30179 5.49675 3.64922 5.67336 3.14768 5.85454C2.63982 6.03799 2.34164 6.20789 2.12463 6.41113C1.73368 6.7773 1.46008 7.25118 1.33845 7.77285C1.27093 8.0624 1.2729 8.40558 1.36794 8.93712C1.46436 9.47633 1.64463 10.1511 1.89919 11.1012L2.33055 12.711C2.58511 13.661 2.7664 14.3356 2.9525 14.8508C3.13596 15.3586 3.30585 15.6568 3.50909 15.8738C3.87526 16.2648 4.34915 16.5384 4.87081 16.66C5.16036 16.7275 5.50355 16.7255 6.03509 16.6305C6.5743 16.5341 7.24911 16.3538 8.19912 16.0993C9.14913 15.8447 9.82367 15.6634 10.3389 15.4773C10.8467 15.2939 11.1449 15.124 11.3619 14.9207C11.4765 14.8133 11.5811 14.6967 11.6747 14.5724C11.5255 14.5514 11.372 14.5245 11.2131 14.4929C10.6532 14.3816 9.98073 14.2014 9.15069 13.979L9.10284 13.9662C8.1867 13.7207 7.4607 13.5262 6.88965 13.3199C6.30554 13.1089 5.82921 12.8675 5.43681 12.5C4.86541 11.9648 4.46554 11.2722 4.28777 10.5098C4.16568 9.98617 4.19481 9.45297 4.30413 8.84161C4.411 8.24393 4.60554 7.51792 4.85103 6.60178L5.21252 5.25266ZM10.2018 1.36826C9.67021 1.27321 9.32703 1.27125 9.03748 1.33877C8.51581 1.4604 8.04193 1.734 7.67576 2.12495C7.31234 2.51298 7.08869 3.11243 6.69976 4.53635C6.63654 4.76777 6.56971 5.01718 6.49722 5.28773L6.06585 6.8976C5.8113 7.84761 5.63103 8.52242 5.53461 9.06164C5.43956 9.59318 5.4376 9.93636 5.50511 10.2259C5.62675 10.7476 5.90034 11.2215 6.2913 11.5876C6.5083 11.7909 6.80649 11.9608 7.31434 12.1442C7.82953 12.3303 8.50407 12.5116 9.45407 12.7662C10.3086 12.9951 10.9419 13.1645 11.4569 13.2669C11.9696 13.3688 12.3175 13.3939 12.6026 13.3587C12.6647 13.351 12.7243 13.3405 12.7824 13.3269C13.304 13.2053 13.7779 12.9317 14.1441 12.5407C14.3473 12.3237 14.5172 12.0255 14.7007 11.5177C14.8868 11.0025 15.0681 10.328 15.3226 9.37795L15.754 7.76807C16.0086 6.81807 16.1888 6.14325 16.2852 5.60404C16.3803 5.0725 16.3823 4.72931 16.3147 4.43976C16.1931 3.9181 15.9195 3.44422 15.5286 3.07805C15.3116 2.8748 15.0134 2.70491 14.5055 2.52145C13.9903 2.33535 13.3158 2.15406 12.3658 1.89951C11.4158 1.64495 10.741 1.46468 10.2018 1.36826ZM8.21034 7.17189C8.29968 6.83847 8.64239 6.64061 8.97581 6.72995L13.0005 7.80836C13.3339 7.8977 13.5318 8.24041 13.4424 8.57383C13.3531 8.90724 13.0104 9.10511 12.677 9.01577L8.65228 7.93736C8.31887 7.84802 8.121 7.50531 8.21034 7.17189ZM7.56296 9.58664C7.6523 9.25323 7.99501 9.05536 8.32843 9.1447L10.7432 9.79175C11.0767 9.88109 11.2745 10.2238 11.1852 10.5572C11.0958 10.8906 10.7531 11.0885 10.4197 10.9992L8.0049 10.3521C7.67149 10.2628 7.47362 9.92006 7.56296 9.58664Z" fill="#2C2D3A"/>
</svg>
